<svg width="24" height="24" viewBox="0 0 24 24" fill="none" xmlns="http://www.w3.org/2000/svg">
<path fill-rule="evenodd" clip-rule="evenodd" d="M4.6468 3.96214L2.41179 3.96256C2.19088 3.9626 2.01176 3.78355 2.01172 3.56263C2.01168 3.34172 2.19073 3.1626 2.41164 3.16256L4.79199 3.16211C5.05198 3.16206 5.28242 3.32946 5.36275 3.57674L5.8775 5.1613H20.4614C20.8342 5.1613 21.1167 5.49753 21.0525 5.86466L19.5419 14.5025C19.4917 14.7896 19.2423 14.9991 18.9508 14.9991H8.28111C7.51884 14.9991 6.98536 15.1734 6.65448 15.3976C6.32548 15.6206 6.20497 15.8823 6.20304 16.0983C6.20112 16.3128 6.31529 16.5713 6.64005 16.7923C6.96803 17.0154 7.50396 17.1904 8.28111 17.1904H18.5695C18.5861 17.1904 18.6025 17.1914 18.6185 17.1933C19.7193 17.1978 20.6104 18.0915 20.6104 19.1933C20.6104 20.2979 19.7149 21.1933 18.6104 21.1933C17.5058 21.1933 16.6104 20.2979 16.6104 19.1933C16.6104 18.7418 16.76 18.3251 17.0124 17.9904H10.8725C11.1272 18.326 11.2783 18.7445 11.2783 19.1983C11.2783 20.3029 10.3829 21.1983 9.27832 21.1983C8.17375 21.1983 7.27832 20.3029 7.27832 19.1983C7.27832 18.731 7.4386 18.3011 7.70719 17.9606C7.08434 17.8934 6.57425 17.7151 6.19004 17.4537C5.69045 17.1138 5.3983 16.6245 5.40307 16.0912C5.40783 15.5594 5.70702 15.0733 6.20571 14.7354C6.59816 14.4694 7.11878 14.289 7.75217 14.225L5.20492 5.68025L4.6468 3.96214ZM6.1235 5.9613L8.57926 14.1991H18.7828L20.2234 5.9613H6.1235ZM18.6104 20.3933C19.2731 20.3933 19.8104 19.8561 19.8104 19.1933C19.8104 18.5306 19.2731 17.9933 18.6104 17.9933C17.9476 17.9933 17.4104 18.5306 17.4104 19.1933C17.4104 19.8561 17.9476 20.3933 18.6104 20.3933ZM10.4783 19.1983C10.4783 19.861 9.94106 20.3983 9.27832 20.3983C8.61558 20.3983 8.07832 19.861 8.07832 19.1983C8.07832 18.5355 8.61558 17.9983 9.27832 17.9983C9.94106 17.9983 10.4783 18.5355 10.4783 19.1983Z" fill="#333333"/>
</svg>
