<svg width="40" height="40" viewBox="0 0 40 40" fill="none" xmlns="http://www.w3.org/2000/svg">
<path fill-rule="evenodd" clip-rule="evenodd" d="M24.014 5.05862C22.6788 5.05761 21.2534 5.08218 19.8544 5.10715L19.6926 5.11004C18.3471 5.13409 17.0307 5.15762 15.8354 5.15876C15.0615 5.15949 14.4188 5.41322 13.9658 5.85226C13.5176 6.28661 13.2943 6.8657 13.2943 7.44094C13.2943 8.01618 13.5176 8.59526 13.966 9.0294C14.2817 9.33505 14.6894 9.55061 15.1693 9.65329V10.0644C13.172 10.0621 11.2464 10.0743 9.50574 10.6188C7.61665 11.2098 5.97971 12.4109 4.6017 14.7398C1.82575 19.4313 4.3479 24.41 7.95302 28.3777C11.5991 32.3904 16.6057 35.6752 19.5554 37.1819C19.8396 37.3271 20.1656 37.3272 20.45 37.1819C23.401 35.674 28.4162 32.369 32.0706 28.3368C35.6833 24.3506 38.2149 19.3521 35.4387 14.6603C33.9329 12.1153 32.2856 10.97 30.3743 10.4833C29.4459 10.2469 28.4799 10.1721 27.4897 10.1418C27.0322 10.1278 26.5955 10.1232 26.1526 10.1185H26.1525C25.6798 10.1134 25.2 10.1083 24.6801 10.0917V9.65866C26.0138 9.39476 26.7437 8.33334 26.6666 7.23506C26.5836 6.05338 25.5936 5.05982 24.014 5.05862ZM16.5027 10.3984V9.72134H18.336C18.7042 9.72134 19.0027 9.42286 19.0027 9.05467C19.0027 8.68648 18.7042 8.388 18.336 8.388H15.836C15.3598 8.388 15.0652 8.23776 14.8935 8.07147C14.7169 7.9005 14.6277 7.6727 14.6277 7.44094C14.6277 7.20916 14.7169 6.98108 14.8937 6.80973C15.0657 6.64307 15.3605 6.49254 15.8366 6.49209C17.0435 6.49095 18.3701 6.46723 19.7116 6.44325L19.7116 6.44325L19.8782 6.44027C21.2789 6.41527 22.6922 6.39096 24.013 6.39196C24.9726 6.39268 25.3079 6.92163 25.3365 7.32844C25.3661 7.75026 25.0924 8.27968 24.272 8.37386C23.806 8.42735 23.3468 8.81396 23.3468 9.3882V10.4148C23.3468 10.948 23.767 11.3905 24.3039 11.4123C24.9347 11.4379 25.5823 11.4454 26.191 11.4526H26.1911H26.1911C26.6389 11.4578 27.0655 11.4628 27.4489 11.4745C28.4081 11.5039 29.2589 11.5752 30.0453 11.7754C31.5637 12.162 32.9381 13.0525 34.2912 15.3393C36.5737 19.1967 34.6446 23.5113 31.0827 27.4415C27.6273 31.2541 22.8683 34.4216 20.0026 35.9124C17.1365 34.4224 12.3863 31.2741 8.93984 27.4811C5.38781 23.5718 3.46655 19.2766 5.74921 15.4188C6.9723 13.3517 8.35277 12.3765 9.90381 11.8913C11.4952 11.3935 13.3 11.3956 15.4552 11.3981L15.5015 11.3982C16.0534 11.3988 16.5027 10.9517 16.5027 10.3984ZM25.1352 15.0418C25.8499 14.8812 26.7719 15.0039 27.6516 15.3769C28.53 15.7493 29.2754 16.3328 29.6794 16.9882C30.4353 18.2144 30.4932 19.485 30.0747 20.7803C29.6482 22.1003 28.7253 23.4404 27.5289 24.7134C25.1985 27.1932 21.9766 29.2656 19.9897 30.2702C18.0042 29.266 14.7937 27.1972 12.4744 24.7209C11.2838 23.4497 10.3664 22.1115 9.94376 20.7929C9.52905 19.4989 9.58896 18.2284 10.3454 17.0012C10.7335 16.3715 11.5001 15.8124 12.4033 15.4531C13.309 15.0927 14.2222 14.9848 14.8328 15.1227C15.7275 15.3247 16.655 15.8441 17.4693 16.4295C18.2753 17.0089 18.9248 17.6197 19.2607 17.9546C19.6691 18.3619 20.3362 18.3497 20.7305 17.9321C21.0531 17.5904 21.6795 16.9683 22.474 16.3777C23.2754 15.782 24.2049 15.2509 25.1352 15.0418ZM30.8144 16.2885C30.2282 15.3377 29.2315 14.5985 28.172 14.1493C27.1137 13.7007 25.9019 13.503 24.8429 13.7409C23.6533 14.0082 22.5495 14.6602 21.6785 15.3077C20.9552 15.8453 20.3627 16.4024 19.9783 16.7918C19.5827 16.4131 18.9759 15.8704 18.2476 15.3469C17.372 14.7174 16.2743 14.0813 15.1265 13.8221C14.1667 13.6054 12.9682 13.7933 11.9104 14.2142C10.8499 14.6361 9.80075 15.3438 9.21035 16.3016C8.21929 17.9094 8.15932 19.5938 8.67404 21.1998C9.18087 22.7812 10.2422 24.2881 11.5013 25.6324C14.02 28.3215 17.4837 30.5211 19.5545 31.5433C19.8316 31.68 20.1477 31.6801 20.4249 31.5433C22.4958 30.5211 25.9707 28.3185 28.5005 25.6265C29.7651 24.2809 30.8321 22.7726 31.3434 21.1902C31.8627 19.5831 31.8061 17.8972 30.8144 16.2885Z" fill="#EEBB55"/>
</svg>
