<svg width="24" height="24" viewBox="0 0 24 24" fill="none" xmlns="http://www.w3.org/2000/svg">
<path fill-rule="evenodd" clip-rule="evenodd" d="M6.28317 5.28317C6.12696 5.12696 5.8737 5.12696 5.71749 5.28317C5.56128 5.43938 5.56128 5.69265 5.71749 5.84886L11.4346 11.566L5.28317 17.7175C5.12696 17.8737 5.12696 18.127 5.28317 18.2832C5.43938 18.4394 5.69265 18.4394 5.84886 18.2832L12.0003 12.1317L17.8797 18.0111C18.0359 18.1673 18.2892 18.1673 18.4454 18.0111C18.6016 17.8549 18.6016 17.6016 18.4454 17.4454L12.566 11.566L18.0111 6.12094C18.1673 5.96473 18.1673 5.71146 18.0111 5.55525C17.8549 5.39904 17.6016 5.39904 17.4454 5.55525L12.0003 11.0003L6.28317 5.28317Z" fill="#333333"/>
</svg>
