<svg width="24" height="24" viewBox="0 0 24 24" fill="none" xmlns="http://www.w3.org/2000/svg">
<path fill-rule="evenodd" clip-rule="evenodd" d="M14.4082 3.03517C13.6071 3.03457 12.7518 3.04931 11.9124 3.06429L11.8154 3.06603C11.008 3.08046 10.2182 3.09457 9.50103 3.09526C9.03672 3.0957 8.6511 3.24793 8.37928 3.51136C8.11037 3.77197 7.97641 4.11942 7.97641 4.46456C7.97641 4.80971 8.11038 5.15715 8.37942 5.41764C8.56884 5.60103 8.81347 5.73037 9.10141 5.79198V6.03865C7.90303 6.03727 6.74762 6.04458 5.70325 6.37129C4.5698 6.72586 3.58763 7.44657 2.76083 8.84389C1.09526 11.6588 2.60854 14.646 4.77162 17.0266C6.95926 19.4343 9.96325 21.4051 11.733 22.3092C11.9036 22.3963 12.0992 22.3963 12.2698 22.3091C14.0404 21.4044 17.0496 19.4214 19.2422 17.0021C21.4098 14.6104 22.9287 11.6112 21.263 8.79618C20.3595 7.2692 19.3712 6.582 18.2244 6.28998C17.6673 6.14813 17.0877 6.10326 16.4936 6.08508C16.2191 6.07668 15.9571 6.0739 15.6914 6.07107H15.6913C15.4077 6.06806 15.1198 6.06501 14.8079 6.05503V5.79519C15.6081 5.63686 16.046 5.00001 15.9997 4.34104C15.95 3.63203 15.356 3.03589 14.4082 3.03517ZM9.90141 6.23904V5.8328H11.0014C11.2223 5.8328 11.4014 5.65372 11.4014 5.4328C11.4014 5.21189 11.2223 5.0328 11.0014 5.0328H9.50141C9.21571 5.0328 9.03895 4.94266 8.93589 4.84288C8.82994 4.7403 8.77641 4.60362 8.77641 4.46456C8.77641 4.3255 8.82995 4.18865 8.93603 4.08584C9.03922 3.98584 9.21609 3.89553 9.50179 3.89526C10.2259 3.89457 11.0219 3.88034 11.8268 3.86595L11.8268 3.86595L11.9267 3.86416C12.7672 3.84916 13.6151 3.83457 14.4076 3.83517C14.9833 3.83561 15.1846 4.15298 15.2017 4.39706C15.2195 4.65016 15.0552 4.96781 14.563 5.02431C14.2834 5.05641 14.0079 5.28838 14.0079 5.63292V6.24889C14.0079 6.5688 14.26 6.8343 14.5821 6.84737C14.9606 6.86272 15.3492 6.86726 15.7144 6.87153L15.7144 6.87153L15.7145 6.87153C15.9831 6.87467 16.2391 6.87767 16.4691 6.88471C17.0447 6.90232 17.5552 6.9451 18.027 7.06524C18.938 7.29723 19.7627 7.83147 20.5745 9.20356C21.944 11.518 20.7865 14.1068 18.6494 16.4649C16.5762 18.7524 13.7208 20.653 12.0014 21.5475C10.2817 20.6535 7.43156 18.7644 5.36371 16.4886C3.23249 14.1431 2.07974 11.5659 3.44933 9.25128C4.18319 8.01103 5.01146 7.42592 5.94209 7.1348C6.89693 6.8361 7.97983 6.83737 9.27295 6.83887L9.3007 6.83891C9.63184 6.83929 9.90141 6.571 9.90141 6.23904ZM15.0808 9.0251C15.5096 8.92875 16.0628 9.00237 16.5906 9.22612C17.1177 9.44957 17.5649 9.79968 17.8073 10.1929C18.2609 10.9287 18.2956 11.691 18.0445 12.4682C17.7886 13.2602 17.2349 14.0642 16.517 14.8281C15.1188 16.3159 13.1856 17.5593 11.9935 18.1621C10.8022 17.5596 8.87592 16.3183 7.48432 14.8326C6.76994 14.0698 6.21949 13.2669 5.96593 12.4757C5.7171 11.6993 5.75305 10.937 6.2069 10.2007C6.43979 9.8229 6.89971 9.48744 7.44163 9.27183C7.98508 9.05562 8.53299 8.99091 8.89937 9.07363C9.4362 9.19485 9.99268 9.50643 10.4813 9.85769C10.9649 10.2054 11.3546 10.5718 11.5561 10.7728C11.8012 11.0172 12.2014 11.0098 12.438 10.7593C12.6315 10.5543 13.0074 10.181 13.4841 9.82664C13.9649 9.46917 14.5226 9.15053 15.0808 9.0251ZM18.4883 9.7731C18.1366 9.20261 17.5386 8.75907 16.9029 8.48958C16.2679 8.2204 15.5408 8.10179 14.9054 8.24456C14.1917 8.40494 13.5294 8.79613 13.0068 9.18459C12.5728 9.5072 12.2173 9.84145 11.9866 10.0751C11.7493 9.84787 11.3852 9.52226 10.9483 9.20814C10.4229 8.83044 9.76424 8.44878 9.07558 8.29328C8.49969 8.16325 7.78062 8.27597 7.14589 8.5285C6.50961 8.78165 5.88013 9.20625 5.52589 9.78094C4.93125 10.7456 4.89527 11.7563 5.2041 12.7199C5.5082 13.6687 6.14499 14.5729 6.90044 15.3794C8.41169 16.9929 10.4899 18.3126 11.7324 18.926C11.8986 19.008 12.0883 19.0081 12.2546 18.926C13.4972 18.3127 15.5821 16.9911 17.1 15.3759C17.8587 14.5685 18.499 13.6636 18.8057 12.7141C19.1173 11.7498 19.0833 10.7383 18.4883 9.7731Z" fill="#333333"/>
</svg>
