<svg width="24" height="24" viewBox="0 0 24 24" fill="none" xmlns="http://www.w3.org/2000/svg">
<path fill-rule="evenodd" clip-rule="evenodd" d="M16.2 10C16.2 13.4242 13.4242 16.2 10 16.2C6.57583 16.2 3.8 13.4242 3.8 10C3.8 6.57583 6.57583 3.8 10 3.8C13.4242 3.8 16.2 6.57583 16.2 10ZM17 10C17 13.866 13.866 17 10 17C6.13401 17 3 13.866 3 10C3 6.13401 6.13401 3 10 3C13.866 3 17 6.13401 17 10ZM16.3945 15.5923C16.2381 15.4362 15.9848 15.4365 15.8288 15.5929C15.6727 15.7493 15.673 16.0025 15.8294 16.1586L20.286 20.6058C20.4423 20.7619 20.6956 20.7616 20.8517 20.6052C21.0077 20.4489 21.0074 20.1956 20.8511 20.0396L16.3945 15.5923Z" fill="#333333"/>
</svg>
