<svg width="40" height="40" viewBox="0 0 40 40" fill="none" xmlns="http://www.w3.org/2000/svg">
<path fill-rule="evenodd" clip-rule="evenodd" d="M17.0044 1.67969C16.4521 1.67969 16.0044 2.12738 16.0044 2.67964L16.0041 8.4049L15.3089 8.40716C14.3905 8.41015 13.6476 9.15546 13.6476 10.0738V14.0326C9.38003 16.2607 6.66602 20.5929 6.66602 25.7491C6.66602 30.5148 9.19207 34.0802 12.941 36.4052C13.1923 36.5611 13.4838 36.6382 13.7795 36.6382H26.298C26.5937 36.6382 26.8852 36.5611 27.1364 36.4051C30.8804 34.0801 33.3327 30.5147 33.3327 25.7491C33.3327 20.5929 30.6412 16.2607 26.3736 14.0326V10.0694C26.3736 9.14897 25.6274 8.40278 24.7069 8.40278H23.9939V2.67969C23.9939 2.1274 23.5462 1.67969 22.9939 1.67969H17.0044ZM22.6605 8.40278V3.01302H17.3377L17.3375 8.40278H22.6605ZM25.0403 13.5525H14.981V10.0738C14.981 9.89014 15.1295 9.74108 15.3132 9.74049L16.6556 9.73611H24.7069C24.891 9.73611 25.0403 9.88535 25.0403 10.0694V13.5525ZM25.7565 15.2145L25.0403 14.8405H14.981L14.2647 15.2145C10.4398 17.2115 7.99935 21.0867 7.99935 25.7491C7.99935 29.9631 10.2035 33.1386 13.6437 35.2721C13.6691 35.2878 13.714 35.3049 13.7795 35.3049H26.298C26.3636 35.3049 26.4082 35.2878 26.433 35.2724C29.8547 33.1475 31.9993 29.9774 31.9993 25.7491C31.9993 21.0824 29.5776 17.2096 25.7565 15.2145ZM20.8327 5.412C20.8327 5.87325 20.4596 6.24718 19.9993 6.24718C19.5391 6.24718 19.166 5.87325 19.166 5.412C19.166 4.95074 19.5391 4.57682 19.9993 4.57682C20.4596 4.57682 20.8327 4.95074 20.8327 5.412ZM11.3327 25.8415C11.3327 24.8622 11.53 23.9263 11.8913 23.0622L11.8913 23.0622C11.8915 23.0617 11.8943 23.052 11.9193 23.0368C11.9488 23.0188 12.0009 23 12.0692 23H27.9295C27.9978 23 28.0499 23.0188 28.0794 23.0368C28.1044 23.052 28.1072 23.0617 28.1074 23.0622L28.1074 23.0622C28.4687 23.9263 28.666 24.8622 28.666 25.8415C28.666 28.2941 27.4211 30.5156 25.4109 31.9748C25.4038 31.98 25.3679 32.0014 25.2917 32.0021L14.852 32.1025C14.776 32.1033 14.7397 32.0826 14.7322 32.0774C12.6375 30.6214 11.3327 28.3519 11.3327 25.8415ZM29.9993 25.8415C29.9993 24.6807 29.765 23.5703 29.3375 22.5478C29.1041 21.9897 28.5344 21.6667 27.9295 21.6667H12.0692C11.4643 21.6667 10.8946 21.9897 10.6612 22.5478C10.2337 23.5703 9.99935 24.6807 9.99935 25.8415C9.99935 28.8355 11.5583 31.495 13.9712 33.1722C14.2324 33.3538 14.5468 33.4389 14.8649 33.4358L25.3045 33.3354C25.6231 33.3324 25.9364 33.2409 26.1942 33.0538C28.5119 31.3713 29.9993 28.766 29.9993 25.8415Z" fill="#EEBB55"/>
</svg>
