<svg width="40" height="40" viewBox="0 0 40 40" fill="none" xmlns="http://www.w3.org/2000/svg">
<path fill-rule="evenodd" clip-rule="evenodd" d="M9.89279 6.05451C10.4275 5.12956 11.341 4.33204 12.5053 4.33203C13.6042 4.33202 14.6605 4.76156 15.5953 5.34443C16.5346 5.93012 17.3984 6.70006 18.1258 7.45176C18.8555 8.20579 19.4628 8.95712 19.8871 9.51865C19.9282 9.57303 19.9676 9.62569 20.0053 9.67645C20.0429 9.62569 20.0824 9.57304 20.1234 9.51866C20.5478 8.95712 21.1551 8.2058 21.8847 7.45177C22.6121 6.70008 23.476 5.93014 24.4153 5.34445C25.3501 4.76157 26.4063 4.33203 27.5053 4.33203C28.6642 4.33203 29.5756 5.13072 30.1101 6.05346C30.6514 6.98795 30.9046 8.19966 30.6558 9.31097C30.5816 9.64247 30.4422 9.92506 30.2598 10.1654H36.3704V18.1654H33.037V34.7018H6.97689V18.1654H3.64355V10.1654H9.75384C9.57076 9.9258 9.43044 9.64398 9.3552 9.31324C9.10256 8.20264 9.35189 6.99019 9.89279 6.05451ZM12.6922 11.4987H4.97689V16.832H15.2826V11.5592C15.2339 11.5622 15.1833 11.5651 15.1311 11.5679C14.5971 11.5963 13.8711 11.6094 13.1203 11.5444C12.9797 11.5322 12.8365 11.5172 12.6922 11.4987ZM16.6159 11.4987H23.3527V33.3685H16.6159V11.4987ZM15.2826 33.3685V18.1654H8.31022V33.3685H15.2826ZM24.686 33.3685H31.7037V18.1654H24.686V33.3685ZM24.686 16.832H35.037V11.4987H27.3566C27.1923 11.5204 27.0293 11.5375 26.8696 11.551C26.1133 11.6148 25.3816 11.6 24.8433 11.5703C24.789 11.5673 24.7365 11.5641 24.686 11.5608V16.832ZM27.2652 10.1654C27.7555 10.0954 28.2071 9.98359 28.5698 9.8182C29.0494 9.59946 29.2847 9.33255 29.3547 9.01976C29.5204 8.27927 29.3536 7.40765 28.9563 6.72176C28.5522 6.02412 28.0064 5.66536 27.5053 5.66536C26.7489 5.66536 25.94 5.96499 25.1207 6.47586C24.3059 6.98393 23.5267 7.67232 22.8429 8.37896C22.2264 9.016 21.6996 9.65524 21.3071 10.1654H27.2652ZM18.7035 10.1654H12.7809C12.2756 10.0954 11.8093 9.98163 11.437 9.81127C10.9604 9.59319 10.7259 9.32766 10.6553 9.01749C10.487 8.27776 10.6511 7.40688 11.0471 6.72181C11.4494 6.02602 11.9963 5.66537 12.5053 5.66536C13.2616 5.66536 14.0705 5.96498 14.8898 6.47584C15.7046 6.98391 16.4838 7.6723 17.1676 8.37894C17.7841 9.01599 18.3109 9.65524 18.7035 10.1654Z" fill="#EEBB55"/>
</svg>
