<svg width="24" height="24" viewBox="0 0 24 24" fill="none" xmlns="http://www.w3.org/2000/svg">
<path fill-rule="evenodd" clip-rule="evenodd" d="M5.93606 3.6331C6.25688 3.07813 6.80501 2.59962 7.50354 2.59961C8.1629 2.5996 8.79667 2.85732 9.35755 3.20705C9.92113 3.55846 10.4394 4.02043 10.8759 4.47144C11.3137 4.92386 11.678 5.37466 11.9326 5.71158C11.9573 5.74421 11.9809 5.7758 12.0035 5.80626C12.0262 5.7758 12.0498 5.74421 12.0745 5.71159C12.329 5.37467 12.6934 4.92387 13.1312 4.47145C13.5677 4.02044 14.086 3.55847 14.6495 3.20706C15.2104 2.85733 15.8442 2.59961 16.5035 2.59961C17.1989 2.59961 17.7458 3.07882 18.0664 3.63247C18.3912 4.19316 18.5431 4.92019 18.3939 5.58697C18.3494 5.78587 18.2657 5.95543 18.1563 6.09961H21.8226V10.8996H19.8226V20.8215H4.18652V10.8996H2.18652V6.09961H5.8527C5.74285 5.95587 5.65865 5.78678 5.61351 5.58834C5.46193 4.92197 5.61153 4.19451 5.93606 3.6331ZM7.61571 6.89961H2.98652V10.0996H9.16992V6.93589C9.14072 6.93771 9.11039 6.93947 9.07903 6.94114C8.75864 6.95817 8.32304 6.96602 7.87256 6.92703C7.78821 6.91973 7.70232 6.91071 7.61571 6.89961ZM9.96992 6.89961H14.012V20.0215H9.96992V6.89961ZM9.16992 20.0215V10.8996H4.98652V20.0215H9.16992ZM14.812 20.0215H19.0226V10.8996H14.812V20.0215ZM14.812 10.0996H21.0226V6.89961H16.4143C16.3158 6.91262 16.218 6.9229 16.1222 6.93099C15.6684 6.96928 15.2293 6.96041 14.9064 6.94255C14.8738 6.94074 14.8423 6.93884 14.812 6.93689V10.0996ZM16.3595 6.09961C16.6537 6.05762 16.9247 5.99054 17.1422 5.89131C17.43 5.76006 17.5712 5.59992 17.6132 5.41225C17.7126 4.96796 17.6126 4.44498 17.3742 4.03345C17.1317 3.61486 16.8043 3.39961 16.5035 3.39961C16.0497 3.39961 15.5644 3.57938 15.0728 3.88591C14.5839 4.19075 14.1164 4.60378 13.7061 5.02777C13.3363 5.40999 13.0202 5.79354 12.7846 6.09961H16.3595ZM11.2225 6.09961H7.66891C7.36576 6.05763 7.08597 5.98937 6.86258 5.88715C6.57661 5.75631 6.43592 5.59699 6.39358 5.41088C6.29262 4.96705 6.39105 4.44452 6.62867 4.03348C6.87 3.616 7.19815 3.39961 7.50355 3.39961C7.95736 3.3996 8.44268 3.57938 8.93426 3.8859C9.42315 4.19074 9.89069 4.60377 10.301 5.02776C10.6708 5.40998 10.9869 5.79353 11.2225 6.09961Z" fill="#333333"/>
</svg>
