<svg width="74" height="24" viewBox="0 0 74 24" fill="none" xmlns="http://www.w3.org/2000/svg">
<path fill-rule="evenodd" clip-rule="evenodd" d="M53.8858 0.989691L53.0166 5.93814C50.4093 4.51546 44.5737 4.14433 44.5737 6.86598C44.5737 7.92907 45.9225 8.65619 47.5419 9.52919C49.974 10.8404 53.0166 12.4806 53.0166 16.0825C53.0166 21.8969 46.7465 24 42.6492 24C38.4899 24 35.8204 22.701 35.8204 22.701L36.6895 17.5052C39.1728 19.4845 46.6844 20.0412 46.6844 16.8866C46.6844 15.5606 45.2038 14.7811 43.4872 13.8773C41.1198 12.6309 38.3036 11.1482 38.3036 7.6701C38.3036 1.29897 45.4428 0 48.4227 0C51.2163 0 53.8858 0.989691 53.8858 0.989691ZM15.2096 16.2681L20.9831 0.371231H27.5015L17.8791 23.5052H11.609L6.33218 3.40216C2.91777 1.36092 0 0.742365 0 0.742365L0.12416 0.309375H9.62243C12.2298 0.309375 12.4781 2.41247 12.4781 2.41247L14.5268 12.8661L15.2096 16.2681ZM26.0734 23.5051H32.0952L35.8821 0.371094H29.8603L26.0734 23.5051ZM68.4754 23.5051H74.0005L69.1582 0.371094H64.316C62.0811 0.371094 61.5224 2.10305 61.5224 2.10305L52.5828 23.5051H58.8529L60.0945 20.0412H67.7925L68.4754 23.5051ZM61.8328 15.2783L64.9989 6.61852L66.7992 15.2783H61.8328Z" fill="#0066B3"/>
<path d="M14.5268 12.8034L12.4781 2.41169C12.4781 2.41169 12.2298 0.308594 9.62243 0.308594H0.12416L0 0.741583C0 0.741583 4.59393 1.66942 8.93954 5.25705C13.161 8.59725 14.5268 12.8034 14.5268 12.8034Z" fill="#FAA634"/>
</svg>
