<svg width="24" height="24" viewBox="0 0 24 24" fill="none" xmlns="http://www.w3.org/2000/svg">
<path d="M24 11.2329C24 11.7658 24 12.2988 24 12.8317C23.9823 12.8968 23.9646 12.9679 23.9587 13.039C23.8701 13.6193 23.8288 14.2115 23.6811 14.774C22.4529 19.4403 19.5006 22.4189 14.8653 23.7158C14.4106 23.8401 13.9442 23.9053 13.4718 24C13.4718 20.826 13.4718 17.6934 13.4718 14.5372C14.4343 14.5372 15.3849 14.5372 16.3415 14.5372C16.4891 13.412 16.6249 12.3165 16.7725 11.1855C15.6624 11.1855 14.5642 11.1855 13.46 11.1855C13.46 10.3446 13.4245 9.52741 13.4718 8.71614C13.519 7.86342 13.956 7.47851 14.8122 7.43114C15.2668 7.40745 15.7156 7.40745 16.1703 7.39561C16.4005 7.38969 16.6308 7.39561 16.867 7.39561C16.867 6.383 16.867 5.4 16.867 4.42292C16.8257 4.41108 16.808 4.39924 16.7844 4.39331C15.6802 4.29857 14.5701 4.19198 13.4659 4.3341C12.7042 4.43477 12.0015 4.71309 11.411 5.22235C10.4899 6.00993 10.0942 7.05215 10.0352 8.22464C9.98795 9.11289 10.0116 10.013 10.0057 10.9012C10.0057 10.9901 10.0057 11.0789 10.0057 11.1914C9.02547 11.1914 8.08661 11.1914 7.13594 11.1914C7.13594 12.3165 7.13594 13.4239 7.13594 14.5549C8.09842 14.5549 9.03728 14.5549 9.98795 14.5549C9.98795 17.6756 9.98795 20.7786 9.98795 23.8756C9.9348 23.8756 9.89347 23.8816 9.85804 23.8756C7.42527 23.4138 5.31726 22.3301 3.56354 20.5832C1.59725 18.6231 0.422196 16.2485 0.0915276 13.4713C-0.150569 11.4756 0.0856225 9.53333 0.823721 7.66208C2.85497 2.45692 8.06299 -0.622349 13.6076 0.106018C15.9636 0.413945 18.0539 1.36734 19.8489 2.93658C22.0632 4.87297 23.4036 7.30086 23.8642 10.2143C23.9114 10.5519 23.9528 10.8953 24 11.2329Z" fill="white"/>
</svg>
