<svg width="158" height="24" viewBox="0 0 158 24" fill="none" xmlns="http://www.w3.org/2000/svg">
<path fill-rule="evenodd" clip-rule="evenodd" d="M28.4979 8.4438C29.4341 8.4438 30.3153 8.80918 30.9762 9.46986C31.2866 9.78019 32.0025 10.6411 31.9825 11.9625C31.9825 12.8984 31.617 13.7794 30.9561 14.44C30.2953 15.1007 29.4141 15.4661 28.4778 15.4661C27.5416 15.4661 26.6604 15.1007 25.9996 14.44L24.2472 12.6432L20.8627 16.1118L22.8253 18.0138C24.1922 19.3802 24.1922 21.6075 22.8253 22.9739C22.1645 23.6346 21.2833 24 20.347 24C19.4108 24 18.5296 23.6346 17.8687 22.9739L16.0213 21.077L14.1488 22.9739C13.4879 23.6346 12.6068 24 11.6705 24C10.7343 24 9.8531 23.6346 9.19222 22.9739C8.53134 22.3132 8.16585 21.4323 8.16585 20.4963C8.16585 19.5604 8.53134 18.6795 9.19222 18.0188L11.1648 16.1018L7.76532 12.6482L5.98295 14.445C5.32207 15.1057 4.4409 15.4711 3.50466 15.4711C2.56841 15.4711 1.68724 15.1057 1.02636 14.445C0.530705 13.9495 0 13.0336 0 11.9474C0 11.0115 0.365486 10.1306 1.03137 9.46486C1.69225 8.80417 2.57342 8.43879 3.50966 8.43879C4.44591 8.43879 5.32708 8.80417 5.98796 9.46486L7.76532 11.2467L11.1048 7.86319L9.19722 5.98123C8.53635 5.32054 8.17086 4.43962 8.17086 3.50365C8.17086 2.56767 8.53635 1.68676 9.19722 1.02607C9.8581 0.365381 10.7393 0 11.6755 0C12.6168 0 13.4929 0.365381 14.1588 1.02607L16.0263 2.89301L17.8788 1.02607C18.5396 0.365381 19.4208 0 20.3571 0C21.2933 0 22.1745 0.365381 22.8454 1.02607C23.5062 1.68676 23.8717 2.56767 23.8717 3.50365C23.8717 4.43962 23.5062 5.32054 22.8454 5.98123L20.9679 7.85819L24.2673 11.2367L26.0196 9.46986C26.6805 8.80918 27.5616 8.4438 28.4979 8.4438ZM30.2802 13.7543C30.7559 13.2788 31.0162 12.6432 31.0162 11.9725C31.0162 11.3874 30.9022 11.149 30.7991 10.9335C30.7964 10.9278 30.7936 10.9221 30.7909 10.9164L30.7609 10.8563C30.7599 10.8563 30.7482 10.8369 30.7285 10.8043C30.6501 10.6746 30.4453 10.3356 30.2853 10.1756C29.8096 9.7001 29.1738 9.43983 28.5029 9.43983C27.827 9.43983 27.1961 9.7001 26.7205 10.1756L24.9582 11.9524L26.7205 13.7543C27.7018 14.7353 29.2989 14.7353 30.2802 13.7543ZM22.8754 20.5014C22.8754 19.8257 22.6151 19.195 22.1394 18.7195L20.1818 16.8275L16.6922 20.4013L18.5747 22.2832C19.0503 22.7587 19.6862 23.019 20.3571 23.019C21.033 23.019 21.6638 22.7587 22.1394 22.2832C22.6151 21.8077 22.8754 21.1771 22.8754 20.5014ZM9.89816 22.2832C10.3738 22.7587 11.0096 23.019 11.6805 23.019C12.3514 23.019 12.9873 22.7587 13.4629 22.2882L15.3454 20.3812L11.8658 16.8125L9.89816 18.7245C8.92186 19.7005 8.91685 21.2922 9.88814 22.2732L9.89816 22.2832ZM9.16218 3.50365C9.16218 4.17935 9.42252 4.81001 9.89816 5.28551L11.8007 7.16246L15.3304 3.58874L13.4629 1.72179C12.9873 1.2463 12.3514 0.986027 11.6805 0.986027C11.0046 0.986027 10.3738 1.2463 9.89816 1.72179C9.42252 2.19729 9.16218 2.82795 9.16218 3.50365ZM11.8808 15.4111L15.3304 12.0526L11.8107 8.56392L8.46625 11.9474L11.8808 15.4111ZM16.0263 4.29447L12.5016 7.86319L16.0413 11.3668L19.571 7.85318L16.0263 4.29447ZM19.4809 16.1368L16.0363 12.7483L12.5667 16.1268L16.0113 19.6905L19.4809 16.1368ZM16.7222 3.58874L20.2719 7.15746L22.1444 5.28551C23.1207 4.30949 23.1257 2.71783 22.1544 1.73681L22.1394 1.72179C21.6638 1.2463 21.028 0.986027 20.3571 0.986027C19.6812 0.986027 19.0503 1.2463 18.5747 1.72179L16.7222 3.58874ZM20.1668 15.4311L23.5713 11.9474L20.2619 8.56392L16.7423 12.0626L20.1668 15.4311ZM5.29203 13.7493L7.0744 11.9524L5.29203 10.1656C4.80138 9.67508 4.15552 9.42982 3.50966 9.42982C2.86381 9.42982 2.21795 9.67508 1.7273 10.1656C1.25166 10.6411 0.991318 11.2767 0.991318 11.9474C0.991318 12.7583 1.53204 13.5541 1.7273 13.7493C2.20293 14.2248 2.83877 14.4851 3.50966 14.4851C4.18556 14.4851 4.8164 14.2248 5.29203 13.7493ZM67.5601 17.5583C66.5488 17.0027 65.7577 16.2369 65.192 15.2709C64.6212 14.2999 64.3408 13.2138 64.3408 12.0025C64.3408 10.7963 64.6262 9.70514 65.192 8.73413C65.7627 7.76312 66.5488 7.00233 67.5601 6.44675C68.5714 5.89117 69.6979 5.61088 70.9446 5.61088C72.1913 5.61088 73.3127 5.88616 74.3091 6.43674C75.3104 6.98731 76.0965 7.7481 76.6722 8.72412C77.248 9.70013 77.5334 10.7913 77.5334 12.0025C77.5334 13.2138 77.248 14.3049 76.6722 15.2809C76.0965 16.257 75.3104 17.0178 74.3091 17.5683C73.3077 18.1189 72.1862 18.3942 70.9446 18.3942C69.7029 18.3942 68.5765 18.1189 67.5601 17.5583ZM73.6432 16.5373C74.4443 16.0868 75.0751 15.4661 75.5307 14.6703C75.9863 13.8745 76.2116 12.9836 76.2116 12.0025C76.2116 11.0215 75.9863 10.1306 75.5307 9.33475C75.0751 8.53893 74.4493 7.91828 73.6432 7.46781C72.8421 7.01734 71.9409 6.79711 70.9496 6.79711C69.9583 6.79711 69.0571 7.02235 68.246 7.46781C67.4399 7.91828 66.8041 8.53893 66.3435 9.33475C65.8829 10.1306 65.6526 11.0215 65.6526 12.0025C65.6526 12.9836 65.8829 13.8745 66.3435 14.6703C66.8041 15.4661 67.4399 16.0868 68.246 16.5373C69.0521 16.9877 69.9533 17.208 70.9496 17.208C71.9409 17.208 72.8371 16.9877 73.6432 16.5373ZM39.5773 14.93H46.5816L48.0936 18.2885H49.4955L43.7479 5.72041H42.4361L36.6885 18.2885H38.0703L39.5773 14.93ZM43.077 7.10185L46.096 13.8539H40.058L43.077 7.10185ZM57.7321 14.2493L60.6059 18.2885H62.0579L58.9888 13.979C59.91 13.6837 60.621 13.1932 61.1166 12.5175C61.6123 11.8418 61.8626 11.0109 61.8626 10.0299C61.8626 8.6885 61.407 7.6374 60.4958 6.87161C59.5846 6.10581 58.3279 5.72041 56.7258 5.72041H52.0195V18.2885H53.3513V14.3043H56.7258C57.0712 14.3043 57.4067 14.2843 57.7321 14.2493ZM60.5308 10.0299C60.5308 11.0259 60.2004 11.7967 59.5445 12.3473C58.8887 12.8979 57.9374 13.1682 56.6907 13.1732H53.3513V6.87161H56.6907C57.9324 6.87161 58.8837 7.14189 59.5445 7.68746C60.2004 8.23303 60.5308 9.01384 60.5308 10.0299ZM94.0202 18.2885V5.72041H92.9238L87.5166 15.0351L82.0593 5.72041H80.9629V18.2885H82.2396V8.28808L87.1761 16.6868H87.807L92.7435 8.23302V18.2885H94.0202ZM106.447 14.93H99.4426L97.9355 18.2885H96.5537L102.301 5.72041H103.613L109.361 18.2885H107.959L106.447 14.93ZM105.961 13.8539L102.942 7.10185L99.9232 13.8539H105.961ZM109.285 6.87161H113.701V18.2885H115.033V6.87161H119.449V5.72041H109.285V6.87161ZM130.904 17.1373V18.2885H122.012V5.72041H130.628V6.87161H123.338V11.3413H129.837V12.4724H123.338V17.1373H130.904ZM135.805 14.9851L138.374 12.3823L143.506 18.2885H145.088L139.27 11.4113L144.712 5.72041H143.185L135.805 13.3133V5.72041H134.479V18.2885H135.805V14.9851ZM155.092 14.93H148.087L146.58 18.2885H145.193L150.941 5.72041H152.253L158 18.2885H156.599L155.092 14.93ZM154.606 13.8539L151.587 7.10185L148.568 13.8539H154.606Z" fill="#333333"/>
</svg>
