<svg width="39" height="24" viewBox="0 0 39 24" fill="none" xmlns="http://www.w3.org/2000/svg">
<path fill-rule="evenodd" clip-rule="evenodd" d="M19.4121 21.3973C22.2823 19.2161 24.1323 15.7873 24.1323 11.9313C24.1323 8.15481 22.3579 4.78816 19.5886 2.60196C21.6232 1.05587 24.1703 0.136719 26.9346 0.136719C33.5986 0.136719 39.0008 5.47852 39.0008 12.068C39.0008 18.6574 33.5986 23.9992 26.9346 23.9992C24.0898 23.9992 21.4749 23.0257 19.4121 21.3973Z" fill="#F79E1B"/>
<path fill-rule="evenodd" clip-rule="evenodd" d="M19.5882 2.60158C16.7177 4.78268 14.8675 8.21167 14.8675 12.068C14.8675 15.8446 16.6421 19.2115 19.4116 21.3976C17.3772 22.9435 14.8302 23.8625 12.0662 23.8625C5.4022 23.8625 0 18.5207 0 11.9313C0 5.3418 5.4022 0 12.0662 0C14.9108 0 17.5254 0.97334 19.5882 2.60158Z" fill="#EB001B"/>
<path fill-rule="evenodd" clip-rule="evenodd" d="M19.4126 21.3979C22.2831 19.2168 24.1333 15.7878 24.1333 11.9314C24.1333 8.15466 22.3586 4.78775 19.5889 2.60156C16.7184 4.78266 14.8682 8.21169 14.8682 12.068C14.8682 15.8448 16.6428 19.2117 19.4126 21.3979Z" fill="#FF5F00"/>
</svg>
