<svg width="24" height="24" viewBox="0 0 24 24" fill="none" xmlns="http://www.w3.org/2000/svg">
<path d="M12.7965 24C12.2625 24 11.7345 24 11.2006 24C10.8896 23.9589 10.5845 23.9237 10.2735 23.8767C8.58378 23.6242 7.01722 23.0488 5.57975 22.127C5.45067 22.0448 5.33919 22.0272 5.19251 22.0801C4.30069 22.3736 3.403 22.6613 2.50531 22.949C1.94792 23.131 1.38467 23.3072 0.792078 23.4951C0.827281 23.3835 0.844883 23.313 0.868352 23.2426C1.31426 21.9215 1.75431 20.6005 2.20022 19.2794C2.25889 19.1091 2.24715 18.98 2.14154 18.8273C1.13238 17.3888 0.481114 15.8036 0.181884 14.0715C0.10561 13.637 0.0586724 13.1908 0 12.7563C0 12.2396 0 11.723 0 11.2063C0.0176017 11.1358 0.0352035 11.0712 0.0469379 11.0008C0.10561 10.5781 0.140814 10.1494 0.222955 9.7267C0.721671 7.16679 1.91859 4.97677 3.84304 3.21536C6.62412 0.667182 9.92151 -0.377921 13.6531 0.121145C16.839 0.549755 19.4558 2.07044 21.433 4.61274C23.7037 7.53081 24.4605 10.8481 23.733 14.4708C23.2225 17.0189 21.9552 19.1679 20.0308 20.9117C18.2471 22.5204 16.1643 23.5127 13.788 23.8708C13.4595 23.9178 13.1309 23.953 12.7965 24ZM15.8592 18.7627C16.2581 18.6864 16.5926 18.6629 16.8977 18.5572C18.5816 17.9818 19.1859 17.1657 19.227 15.5746C19.2328 15.3339 19.1389 15.1753 18.9219 15.0755C18.03 14.6528 17.1441 14.2124 16.2464 13.7956C15.7887 13.5783 15.5247 13.6664 15.2196 14.0774C14.9908 14.3827 14.7678 14.6939 14.5332 14.9933C14.1518 15.4865 13.8995 15.5452 13.3186 15.3045C11.3238 14.4825 9.84523 13.0734 8.74806 11.2415C8.57791 10.9597 8.59551 10.7953 8.8126 10.537C9.04729 10.2551 9.29371 9.98504 9.54014 9.70909C9.82763 9.38029 9.9039 9.03975 9.71029 8.61114C9.35825 7.83612 9.02382 7.05523 8.73632 6.25672C8.53097 5.6872 8.1848 5.43473 7.58048 5.47583C7.10523 5.51106 6.64172 5.5639 6.27795 5.90444C5.25705 6.87322 4.89915 8.07098 5.09863 9.43901C5.25705 10.5076 5.76163 11.4411 6.37182 12.3218C7.39272 13.8014 8.55444 15.146 9.97431 16.2674C11.2416 17.2655 12.6908 17.9114 14.2222 18.3694C14.7737 18.5455 15.3487 18.6453 15.8592 18.7627Z" fill="white"/>
</svg>
