<svg width="24" height="24" viewBox="0 0 24 24" fill="none" xmlns="http://www.w3.org/2000/svg">
<path d="M17.9971 24C14.001 24 9.99902 24 6.00293 24C5.94425 23.9824 5.88557 23.9707 5.82102 23.9531C5.28704 23.824 4.72371 23.7535 4.21907 23.5482C1.8308 22.5682 0.440098 20.7785 0.0586797 18.2201C0.0176039 17.9267 0.0117345 17.6274 0.00586654 17.334C-1.43237e-06 13.778 0.00586797 10.2279 0 6.67192C0 5.73892 0.140828 4.82938 0.53985 3.99026C1.76039 1.41423 3.80244 0.0469972 6.66601 0.0176575C10.2161 -0.0175503 13.7721 0.0117895 17.3281 0.00592149C17.9795 0.00592149 18.6249 0.070469 19.2469 0.26998C21.6176 1.02695 23.1374 2.60543 23.8005 5.00542C23.8885 5.33403 23.9355 5.67437 24 6.00884C24 10.0108 24 14.0069 24 18.0088C23.9589 18.2377 23.9296 18.4665 23.8768 18.6954C23.2548 21.3536 21.6352 23.067 19.0064 23.8122C18.6777 23.8944 18.3315 23.9355 17.9971 24ZM12.0117 18.5721C15.6381 18.5604 18.5663 15.6264 18.5721 12.0059C18.5721 8.37363 15.6205 5.42205 11.9941 5.43378C8.36772 5.44552 5.43961 8.3795 5.43374 12C5.43374 15.6323 8.38533 18.5839 12.0117 18.5721ZM20.9604 5.03476C20.9604 3.93158 20.0685 3.04552 18.9711 3.04552C17.8856 3.05139 16.9819 3.92572 16.9878 5.02303C16.9936 6.12033 17.8093 7.01226 18.9711 7.024C20.1271 7.02987 20.9604 6.09686 20.9604 5.03476ZM12.0117 6.84209C9.16577 6.82449 6.85379 9.1306 6.84205 11.9942C6.82445 14.8401 9.13056 17.1521 11.9883 17.1638C14.8342 17.1814 17.1462 14.8753 17.1579 12.0118C17.1755 9.17167 14.8753 6.8597 12.0117 6.84209ZM18.9711 4.45383C18.6601 4.45383 18.3843 4.72376 18.3843 5.02889C18.3843 5.33403 18.6836 5.62742 18.9888 5.62156C19.2998 5.60982 19.5579 5.3399 19.5521 5.02303C19.5462 4.70616 19.288 4.44797 18.9711 4.45383Z" fill="white"/>
</svg>
